<svg xmlns="http://www.w3.org/2000/svg" width="512" height="512" preserveAspectRatio="xMidYMid meet" version="1.0" viewBox="0 0 375 375" zoomAndPan="magnify"><defs><clipPath id="ae37e83702"><path d="M 10.703125 11.949219 L 365 11.949219 L 365 364 L 10.703125 364 Z M 10.703125 11.949219" clip-rule="nonzero"/></clipPath><clipPath id="aa9afa67dc"><path d="M 187.5 11.949219 C 89.855469 11.949219 10.703125 90.546875 10.703125 187.5 C 10.703125 284.453125 89.855469 363.050781 187.5 363.050781 C 285.144531 363.050781 364.296875 284.453125 364.296875 187.5 C 364.296875 90.546875 285.144531 11.949219 187.5 11.949219" clip-rule="nonzero"/></clipPath><clipPath id="b533a260ea"><path d="M 34 141.164062 L 127 141.164062 L 127 191 L 34 191 Z M 34 141.164062" clip-rule="nonzero"/></clipPath><clipPath id="7edb76c7cf"><path d="M 27.347656 160 L 155 160 L 155 218 L 27.347656 218 Z M 27.347656 160" clip-rule="nonzero"/></clipPath><clipPath id="4001693c0f"><path d="M 60 192 L 135 192 L 135 244 L 60 244 Z M 60 192" clip-rule="nonzero"/></clipPath><clipPath id="d5b1ce4871"><path d="M 134.347656 193.074219 L 121.847656 254.230469 L 60.691406 241.730469 L 73.195312 180.574219 Z M 134.347656 193.074219" clip-rule="nonzero"/></clipPath><clipPath id="dea0d2c4bb"><path d="M 134.347656 193.074219 L 121.847656 254.230469 L 60.691406 241.730469 L 73.195312 180.574219 Z M 134.347656 193.074219" clip-rule="nonzero"/></clipPath><clipPath id="6b9da97563"><path d="M 63 194 L 138 194 L 138 246 L 63 246 Z M 63 194" clip-rule="nonzero"/></clipPath><clipPath id="fc53619954"><path d="M 137.117188 195.152344 L 124.617188 256.308594 L 63.460938 243.804688 L 75.960938 182.652344 Z M 137.117188 195.152344" clip-rule="nonzero"/></clipPath><clipPath id="2871db12b0"><path d="M 137.117188 195.152344 L 124.617188 256.308594 L 63.460938 243.804688 L 75.960938 182.652344 Z M 137.117188 195.152344" clip-rule="nonzero"/></clipPath><clipPath id="ceae700aa5"><path d="M 66 197 L 141 197 L 141 249 L 66 249 Z M 66 197" clip-rule="nonzero"/></clipPath><clipPath id="Infinity"><path d="M 140.40625 198.09375 L 127.902344 259.25 L 66.75 246.746094 L 79.25 185.59375 Z M 140.40625 198.09375" clip-rule="nonzero"/></clipPath><clipPath id="a7582c9c66"><path d="M 140.40625 198.09375 L 127.902344 259.25 L 66.75 246.746094 L 79.25 185.59375 Z M 140.40625 198.09375" clip-rule="nonzero"/></clipPath><clipPath id="c4c1bf1d23"><path d="M 69 200 L 144 200 L 144 252 L 69 252 Z M 69 200" clip-rule="nonzero"/></clipPath><clipPath id="7f6d011f8d"><path d="M 143.171875 201.496094 L 130.671875 262.652344 L 69.515625 250.148438 L 82.019531 188.996094 Z M 143.171875 201.496094" clip-rule="nonzero"/></clipPath><clipPath id="efb7f2e737"><path d="M 143.171875 201.496094 L 130.671875 262.652344 L 69.515625 250.148438 L 82.019531 188.996094 Z M 143.171875 201.496094" clip-rule="nonzero"/></clipPath><clipPath id="e160ccaf82"><path d="M 71 202 L 146 202 L 146 255 L 71 255 Z M 71 202" clip-rule="nonzero"/></clipPath><clipPath id="8cda25a9a5"><path d="M 145.597656 203.976562 L 133.09375 265.132812 L 71.9375 252.628906 L 84.441406 191.476562 Z M 145.597656 203.976562" clip-rule="nonzero"/></clipPath><clipPath id="81194cdaa0"><path d="M 145.597656 203.976562 L 133.09375 265.132812 L 71.9375 252.628906 L 84.441406 191.476562 Z M 145.597656 203.976562" clip-rule="nonzero"/></clipPath><clipPath id="3b4f34f5c7"><path d="M 114.675781 222.316406 L 166.152344 222.316406 L 166.152344 273.792969 L 114.675781 273.792969 Z M 114.675781 222.316406" clip-rule="nonzero"/></clipPath><clipPath id="7e6c4d2b93"><path d="M 140.414062 222.316406 C 126.199219 222.316406 114.675781 233.839844 114.675781 248.054688 C 114.675781 262.269531 126.199219 273.792969 140.414062 273.792969 C 154.628906 273.792969 166.152344 262.269531 166.152344 248.054688 C 166.152344 233.839844 154.628906 222.316406 140.414062 222.316406" clip-rule="nonzero"/></clipPath></defs><g clip-path="url(#ae37e83702)"><g clip-path="url(#aa9afa67dc)"><path fill="#002147" fill-opacity="1" fill-rule="nonzero" d="M 10.703125 11.949219 L 364.246094 11.949219 L 364.246094 365.492188 L 10.703125 365.492188 Z M 10.703125 11.949219"/></g></g><g fill="#fff" fill-opacity="1"><g><g><path d="M 30.300781 0.660156 L -0.925781 -91.957031 L 19.316406 -91.957031 L 34.535156 -44.0625 C 35.503906 -41.148438 36.476562 -37.710938 37.445312 -33.742188 C 37.886719 -31.886719 38.328125 -29.992188 38.769531 -28.050781 C 39.210938 -30.257812 39.738281 -32.460938 40.355469 -34.667969 C 41.328125 -38.105469 42.5625 -42.03125 44.0625 -46.441406 L 59.675781 -91.957031 L 79.125 -92.089844 L 47.105469 0.660156 Z M 30.300781 0.660156" transform="translate(159.621264, 233.251449)"/></g></g></g><g fill="#fff" fill-opacity="1"><g><g><path d="M 8.996094 0 L 8.996094 -91.957031 L 61.394531 -91.957031 L 59.011719 -76.875 L 27.523438 -76.875 L 27.523438 -55.574219 L 53.851562 -55.574219 L 53.851562 -40.488281 L 27.785156 -40.488281 L 27.785156 -15.878906 L 62.585938 -15.878906 L 62.585938 0 Z M 8.996094 0" transform="translate(259.116248, 233.251449)"/></g></g></g><g clip-path="url(#b533a260ea)"><path fill="#fff" fill-opacity="1" fill-rule="nonzero" d="M 82.125 141.167969 C 70.023438 141.167969 57.929688 145.78125 48.703125 155.007812 C 39.136719 164.574219 34.566406 177.21875 34.917969 189.746094 C 37.910156 188.824219 40.527344 189.382812 43.136719 190.390625 L 47.09375 187.027344 C 47.4375 178.523438 50.820312 170.121094 57.320312 163.621094 C 64.171875 156.773438 73.152344 153.339844 82.121094 153.339844 C 91.101562 153.339844 100.082031 156.761719 106.933594 163.609375 C 111.148438 167.828125 114.046875 172.855469 115.679688 178.1875 L 126.285156 171.6875 C 123.980469 165.582031 120.40625 159.867188 115.542969 155.007812 C 106.308594 145.78125 94.21875 141.167969 82.125 141.167969 Z M 82.125 141.167969"/></g><path fill="#fff" fill-opacity="1" fill-rule="nonzero" d="M 129.363281 188.148438 L 116.277344 196.15625 L 116.140625 196.882812 C 114.664062 202.871094 111.613281 208.554688 106.933594 213.230469 C 93.230469 226.933594 71.003906 226.933594 57.308594 213.230469 C 56.398438 212.320312 55.554688 211.371094 54.761719 210.386719 C 53.503906 214.503906 50.671875 217.957031 46.988281 220.035156 C 47.535156 220.640625 48.105469 221.246094 48.703125 221.835938 C 64.789062 237.902344 90.035156 240.242188 108.800781 227.402344 L 136.023438 258.660156 C 139.628906 263.160156 146.5625 262.367188 151.316406 257.613281 C 156.070312 252.851562 156.863281 245.929688 152.363281 242.320312 L 121.109375 215.09375 C 126.707031 206.917969 129.414062 197.5 129.363281 188.148438 Z M 129.363281 188.148438"/><g clip-path="url(#7edb76c7cf)"><path fill="#fff" fill-opacity="1" fill-rule="nonzero" d="M 39.015625 200.09375 C 42.132812 200.09375 44.574219 202.535156 44.574219 205.664062 C 44.574219 208.789062 42.132812 211.242188 39.015625 211.242188 C 35.878906 211.242188 33.429688 208.789062 33.429688 205.664062 C 33.429688 202.539062 35.878906 200.09375 39.015625 200.09375 Z M 102.238281 184.601562 C 105.363281 184.601562 107.808594 187.03125 107.808594 190.148438 C 107.808594 193.277344 105.355469 195.746094 102.238281 195.746094 C 99.121094 195.746094 96.660156 193.277344 96.660156 190.148438 C 96.664062 187.03125 99.121094 184.601562 102.238281 184.601562 Z M 66.300781 177.304688 C 69.417969 177.304688 71.859375 179.726562 71.859375 182.863281 C 71.859375 185.980469 69.417969 188.441406 66.300781 188.441406 C 63.183594 188.441406 60.710938 185.980469 60.710938 182.863281 C 60.710938 179.726562 63.171875 177.304688 66.300781 177.304688 Z M 142.6875 166.613281 C 145.816406 166.613281 148.273438 169.042969 148.273438 172.171875 C 148.273438 175.289062 145.804688 177.757812 142.6875 177.757812 C 139.558594 177.757812 137.128906 175.296875 137.128906 172.171875 C 137.121094 169.03125 139.550781 166.613281 142.6875 166.613281 Z M 142.6875 160.476562 C 136.257812 160.476562 130.992188 165.738281 130.992188 172.167969 C 130.992188 172.886719 131.121094 173.570312 131.238281 174.238281 L 112.839844 185.5 C 111.015625 181.390625 107.003906 178.441406 102.238281 178.441406 C 97.390625 178.441406 93.300781 181.511719 91.535156 185.753906 L 77.808594 181.734375 C 77.222656 175.84375 72.339844 171.148438 66.300781 171.148438 C 59.859375 171.148438 54.574219 176.433594 54.574219 182.863281 C 54.574219 184.085938 54.878906 185.234375 55.234375 186.339844 L 44.503906 195.457031 C 42.859375 194.554688 41.019531 193.957031 39.015625 193.957031 C 32.574219 193.957031 27.292969 199.222656 27.292969 205.664062 C 27.292969 212.09375 32.574219 217.355469 39.015625 217.355469 C 45.4375 217.355469 50.710938 212.09375 50.710938 205.664062 C 50.710938 203.476562 50.015625 201.46875 48.964844 199.703125 L 58.640625 191.488281 C 60.710938 193.332031 63.324219 194.574219 66.296875 194.574219 C 70.9375 194.574219 74.875 191.78125 76.769531 187.84375 L 90.789062 191.910156 C 91.667969 197.496094 96.425781 201.855469 102.238281 201.855469 C 107.972656 201.855469 112.660156 197.65625 113.660156 192.191406 L 133.941406 179.785156 C 136.097656 182.253906 139.195312 183.871094 142.707031 183.871094 C 149.136719 183.871094 154.398438 178.609375 154.398438 172.167969 C 154.402344 165.742188 149.117188 160.476562 142.6875 160.476562 Z M 142.6875 160.476562"/></g><g clip-path="url(#4001693c0f)"><g clip-path="url(#d5b1ce4871)"><g clip-path="url(#dea0d2c4bb)"><path fill="#002147" fill-opacity="1" fill-rule="nonzero" d="M 60.691406 241.730469 L 61.691406 236.835938 C 94.816406 243.609375 122.683594 225.203125 129.457031 192.074219 L 134.347656 193.074219 C 127.105469 228.511719 96.128906 248.972656 60.691406 241.730469 Z M 60.691406 241.730469"/></g></g></g><g clip-path="url(#6b9da97563)"><g clip-path="url(#fc53619954)"><g clip-path="url(#2871db12b0)"><path fill="#002147" fill-opacity="1" fill-rule="nonzero" d="M 63.460938 243.804688 L 64.460938 238.914062 C 97.585938 245.683594 125.453125 227.277344 132.226562 194.152344 L 137.117188 195.152344 C 129.875 230.585938 98.898438 251.050781 63.460938 243.804688 Z M 63.460938 243.804688"/></g></g></g><g clip-path="url(#ceae700aa5)"><g clip-path="url(#93e7594801)"><g clip-path="url(#a7582c9c66)"><path fill="#002147" fill-opacity="1" fill-rule="nonzero" d="M 66.75 246.746094 L 67.75 241.855469 C 100.871094 248.625 128.742188 230.21875 135.511719 197.09375 L 140.40625 198.09375 C 133.160156 233.527344 102.183594 253.992188 66.75 246.746094 Z M 66.75 246.746094"/></g></g></g><g clip-path="url(#c4c1bf1d23)"><g clip-path="url(#7f6d011f8d)"><g clip-path="url(#efb7f2e737)"><path fill="#002147" fill-opacity="1" fill-rule="nonzero" d="M 69.515625 250.148438 L 70.515625 245.257812 C 103.640625 252.027344 131.507812 233.621094 138.28125 200.496094 L 143.171875 201.496094 C 135.929688 236.929688 104.953125 257.394531 69.515625 250.148438 Z M 69.515625 250.148438"/></g></g></g><g clip-path="url(#e160ccaf82)"><g clip-path="url(#8cda25a9a5)"><g clip-path="url(#81194cdaa0)"><path fill="#002147" fill-opacity="1" fill-rule="nonzero" d="M 71.9375 252.628906 L 72.9375 247.738281 C 106.0625 254.507812 133.933594 236.101562 140.703125 202.976562 L 145.597656 203.976562 C 138.351562 239.414062 107.375 259.875 71.9375 252.628906 Z M 71.9375 252.628906"/></g></g></g><g clip-path="url(#3b4f34f5c7)"><g clip-path="url(#7e6c4d2b93)"><path fill="#002147" fill-opacity="1" fill-rule="nonzero" d="M 114.675781 222.316406 L 166.152344 222.316406 L 166.152344 273.792969 L 114.675781 273.792969 Z M 114.675781 222.316406"/></g></g></svg>