<svg xmlns="http://www.w3.org/2000/svg" xmlns:xlink="http://www.w3.org/1999/xlink" width="500" zoomAndPan="magnify" viewBox="0 0 375 374.999991" height="500" preserveAspectRatio="xMidYMid meet" version="1.0"><defs><g/><clipPath id="e492b0c103"><path d="M 10.703125 11.949219 L 364.925781 11.949219 L 364.925781 363 L 10.703125 363 Z M 10.703125 11.949219 " clip-rule="nonzero"/></clipPath><clipPath id="531b1db612"><path d="M 187.5 11.949219 C 89.855469 11.949219 10.703125 90.546875 10.703125 187.5 C 10.703125 284.453125 89.855469 363.050781 187.5 363.050781 C 285.144531 363.050781 364.296875 284.453125 364.296875 187.5 C 364.296875 90.546875 285.144531 11.949219 187.5 11.949219 " clip-rule="nonzero"/></clipPath><clipPath id="e7a9079841"><path d="M 28 140.058594 L 126 140.058594 L 126 193 L 28 193 Z M 28 140.058594 " clip-rule="nonzero"/></clipPath><clipPath id="a76cf39f8a"><path d="M 20.703125 160 L 155 160 L 155 221 L 20.703125 221 Z M 20.703125 160 " clip-rule="nonzero"/></clipPath><clipPath id="c412806ec6"><path d="M 55 193 L 134 193 L 134 248 L 55 248 Z M 55 193 " clip-rule="nonzero"/></clipPath><clipPath id="c2baff3f84"><path d="M 133.621094 194.835938 L 120.429688 259.371094 L 55.894531 246.179688 L 69.085938 181.644531 Z M 133.621094 194.835938 " clip-rule="nonzero"/></clipPath><clipPath id="3b74f97fa7"><path d="M 133.621094 194.835938 L 120.429688 259.371094 L 55.894531 246.179688 L 69.085938 181.644531 Z M 133.621094 194.835938 " clip-rule="nonzero"/></clipPath><clipPath id="c80b22e75e"><path d="M 58 195 L 137 195 L 137 250 L 58 250 Z M 58 195 " clip-rule="nonzero"/></clipPath><clipPath id="99f5714eec"><path d="M 136.542969 197.027344 L 123.347656 261.5625 L 58.816406 248.371094 L 72.007812 183.835938 Z M 136.542969 197.027344 " clip-rule="nonzero"/></clipPath><clipPath id="a6506a076d"><path d="M 136.542969 197.027344 L 123.347656 261.5625 L 58.816406 248.371094 L 72.007812 183.835938 Z M 136.542969 197.027344 " clip-rule="nonzero"/></clipPath><clipPath id="7ddba551d5"><path d="M 62 199 L 141 199 L 141 254 L 62 254 Z M 62 199 " clip-rule="nonzero"/></clipPath><clipPath id="9c8b793fd5"><path d="M 140.011719 200.132812 L 126.820312 264.667969 L 62.285156 251.476562 L 75.476562 186.941406 Z M 140.011719 200.132812 " clip-rule="nonzero"/></clipPath><clipPath id="b5ffd03a57"><path d="M 140.011719 200.132812 L 126.820312 264.667969 L 62.285156 251.476562 L 75.476562 186.941406 Z M 140.011719 200.132812 " clip-rule="nonzero"/></clipPath><clipPath id="89bbb10173"><path d="M 65 202 L 143 202 L 143 257 L 65 257 Z M 65 202 " clip-rule="nonzero"/></clipPath><clipPath id="9a782feaa1"><path d="M 142.933594 203.722656 L 129.738281 268.257812 L 65.207031 255.066406 L 78.398438 190.53125 Z M 142.933594 203.722656 " clip-rule="nonzero"/></clipPath><clipPath id="0a2379ddd9"><path d="M 142.933594 203.722656 L 129.738281 268.257812 L 65.207031 255.066406 L 78.398438 190.53125 Z M 142.933594 203.722656 " clip-rule="nonzero"/></clipPath><clipPath id="e225141c0f"><path d="M 67 205 L 146 205 L 146 260 L 67 260 Z M 67 205 " clip-rule="nonzero"/></clipPath><clipPath id="417827a5d1"><path d="M 145.488281 206.339844 L 132.296875 270.875 L 67.761719 257.683594 L 80.953125 193.148438 Z M 145.488281 206.339844 " clip-rule="nonzero"/></clipPath><clipPath id="aeb73cab59"><path d="M 145.488281 206.339844 L 132.296875 270.875 L 67.761719 257.683594 L 80.953125 193.148438 Z M 145.488281 206.339844 " clip-rule="nonzero"/></clipPath><clipPath id="b436353465"><path d="M 112.859375 225.695312 L 167.183594 225.695312 L 167.183594 280.015625 L 112.859375 280.015625 Z M 112.859375 225.695312 " clip-rule="nonzero"/></clipPath><clipPath id="baf578051c"><path d="M 140.023438 225.695312 C 125.019531 225.695312 112.859375 237.855469 112.859375 252.855469 C 112.859375 267.855469 125.019531 280.015625 140.023438 280.015625 C 155.023438 280.015625 167.183594 267.855469 167.183594 252.855469 C 167.183594 237.855469 155.023438 225.695312 140.023438 225.695312 " clip-rule="nonzero"/></clipPath><clipPath id="49dbb264d5"><path d="M 14 158 L 162 158 L 162 226 L 14 226 Z M 14 158 " clip-rule="nonzero"/></clipPath><clipPath id="985fc17185"><path d="M 10.304688 192.046875 L 155.621094 154.847656 L 165.210938 192.3125 L 19.898438 229.511719 Z M 10.304688 192.046875 " clip-rule="nonzero"/></clipPath><clipPath id="3d6a187ba7"><path d="M 27.015625 187.769531 L 138.597656 159.207031 C 143.027344 158.070312 147.730469 158.746094 151.664062 161.074219 C 155.601562 163.40625 158.449219 167.207031 159.585938 171.640625 L 160.570312 175.480469 C 161.703125 179.914062 161.03125 184.613281 158.699219 188.550781 C 156.367188 192.488281 152.566406 195.335938 148.136719 196.46875 L 36.554688 225.035156 C 32.125 226.167969 27.421875 225.496094 23.488281 223.164062 C 19.550781 220.832031 16.703125 217.03125 15.566406 212.601562 L 14.585938 208.757812 C 13.449219 204.328125 14.121094 199.625 16.453125 195.691406 C 18.785156 191.753906 22.585938 188.90625 27.015625 187.769531 " clip-rule="nonzero"/></clipPath><clipPath id="f6cc8a1e8d"><path d="M 48 163 L 91 163 L 91 200 L 48 200 Z M 48 163 " clip-rule="nonzero"/></clipPath><clipPath id="f048356fb4"><path d="M 45 169.980469 L 85.871094 159.519531 L 94.589844 193.578125 L 53.71875 204.039062 Z M 45 169.980469 " clip-rule="nonzero"/></clipPath><clipPath id="7f935e6760"><path d="M 61.710938 165.703125 L 68.59375 163.941406 C 73.027344 162.808594 77.726562 163.480469 81.664062 165.8125 C 85.601562 168.144531 88.449219 171.945312 89.582031 176.375 L 89.667969 176.703125 C 90.800781 181.132812 90.128906 185.835938 87.796875 189.769531 C 85.464844 193.707031 81.664062 196.554688 77.234375 197.691406 L 70.351562 199.453125 C 65.917969 200.585938 61.21875 199.914062 57.28125 197.582031 C 53.34375 195.25 50.496094 191.449219 49.363281 187.019531 L 49.277344 186.691406 C 48.144531 182.261719 48.816406 177.558594 51.148438 173.625 C 53.480469 169.6875 57.28125 166.839844 61.710938 165.703125 " clip-rule="nonzero"/></clipPath><clipPath id="b5194fbe26"><path d="M 114 171 L 128 171 L 128 208 L 114 208 Z M 114 171 " clip-rule="nonzero"/></clipPath><clipPath id="75600636e9"><path d="M 20.707031 175.316406 L 140.4375 159.683594 L 149.179688 226.613281 L 29.445312 242.25 Z M 20.707031 175.316406 " clip-rule="nonzero"/></clipPath><clipPath id="b85ab8c8b1"><path d="M 20.707031 175.316406 L 140.4375 159.683594 L 149.179688 226.613281 L 29.445312 242.25 Z M 20.707031 175.316406 " clip-rule="nonzero"/></clipPath><clipPath id="2b1c29fb73"><path d="M 26 186 L 144 186 L 144 218 L 26 218 Z M 26 186 " clip-rule="nonzero"/></clipPath><clipPath id="a83b20c28d"><path d="M 20.707031 175.316406 L 140.4375 159.683594 L 149.179688 226.613281 L 29.445312 242.25 Z M 20.707031 175.316406 " clip-rule="nonzero"/></clipPath><clipPath id="5a974d9a44"><path d="M 20.707031 175.316406 L 140.4375 159.683594 L 149.179688 226.613281 L 29.445312 242.25 Z M 20.707031 175.316406 " clip-rule="nonzero"/></clipPath><clipPath id="59c8a51ea7"><path d="M 26 189 L 145 189 L 145 221 L 26 221 Z M 26 189 " clip-rule="nonzero"/></clipPath><clipPath id="2de15284a2"><path d="M 20.707031 175.316406 L 140.4375 159.683594 L 149.179688 226.613281 L 29.445312 242.25 Z M 20.707031 175.316406 " clip-rule="nonzero"/></clipPath><clipPath id="f358941526"><path d="M 20.707031 175.316406 L 140.4375 159.683594 L 149.179688 226.613281 L 29.445312 242.25 Z M 20.707031 175.316406 " clip-rule="nonzero"/></clipPath><clipPath id="01b1f48340"><path d="M 40 169 L 138 169 L 138 215 L 40 215 Z M 40 169 " clip-rule="nonzero"/></clipPath><clipPath id="a5b7fb74ba"><path d="M 20.707031 175.316406 L 140.4375 159.683594 L 149.179688 226.613281 L 29.445312 242.25 Z M 20.707031 175.316406 " clip-rule="nonzero"/></clipPath><clipPath id="898736fdc0"><path d="M 20.707031 175.316406 L 140.4375 159.683594 L 149.179688 226.613281 L 29.445312 242.25 Z M 20.707031 175.316406 " clip-rule="nonzero"/></clipPath><clipPath id="744940dd90"><path d="M 29 171 L 129 171 L 129 216 L 29 216 Z M 29 171 " clip-rule="nonzero"/></clipPath><clipPath id="aef7419dc0"><path d="M 20.707031 175.316406 L 140.4375 159.683594 L 149.179688 226.613281 L 29.445312 242.25 Z M 20.707031 175.316406 " clip-rule="nonzero"/></clipPath><clipPath id="9f182fdec8"><path d="M 20.707031 175.316406 L 140.4375 159.683594 L 149.179688 226.613281 L 29.445312 242.25 Z M 20.707031 175.316406 " clip-rule="nonzero"/></clipPath><clipPath id="719080f0c1"><path d="M 63 170 L 64 170 L 64 171 L 63 171 Z M 63 170 " clip-rule="nonzero"/></clipPath><clipPath id="4b2c5c2a3a"><path d="M 20.707031 175.316406 L 140.4375 159.683594 L 149.179688 226.613281 L 29.445312 242.25 Z M 20.707031 175.316406 " clip-rule="nonzero"/></clipPath><clipPath id="b5d80b6cc8"><path d="M 20.707031 175.316406 L 140.4375 159.683594 L 149.179688 226.613281 L 29.445312 242.25 Z M 20.707031 175.316406 " clip-rule="nonzero"/></clipPath><clipPath id="bcde08366e"><path d="M 50 170 L 72 170 L 72 237 L 50 237 Z M 50 170 " clip-rule="nonzero"/></clipPath><clipPath id="74a686b13e"><path d="M 20.707031 175.316406 L 140.4375 159.683594 L 149.179688 226.613281 L 29.445312 242.25 Z M 20.707031 175.316406 " clip-rule="nonzero"/></clipPath><clipPath id="196eedfe30"><path d="M 20.707031 175.316406 L 140.4375 159.683594 L 149.179688 226.613281 L 29.445312 242.25 Z M 20.707031 175.316406 " clip-rule="nonzero"/></clipPath></defs><rect x="-37.5" width="450" fill="#ffffff" y="-37.499999" height="449.999989" fill-opacity="1"/><rect x="-37.5" width="450" fill="#ffffff" y="-37.499999" height="449.999989" fill-opacity="1"/><rect x="-37.5" width="450" fill="#ffffff" y="-37.499999" height="449.999989" fill-opacity="1"/><g clip-path="url(#e492b0c103)"><g clip-path="url(#531b1db612)"><path fill="#002147" d="M 10.703125 11.949219 L 364.246094 11.949219 L 364.246094 362.773438 L 10.703125 362.773438 Z M 10.703125 11.949219 " fill-opacity="1" fill-rule="nonzero"/></g></g><g fill="#ffffff" fill-opacity="1"><g transform="translate(155.71078, 234.67898)"><g><path d="M 30.644531 0.667969 L -0.9375 -93.007812 L 19.539062 -93.007812 L 34.929688 -44.5625 C 35.910156 -41.621094 36.890625 -38.140625 37.871094 -34.125 C 38.320312 -32.253906 38.765625 -30.332031 39.210938 -28.371094 C 39.65625 -30.601562 40.191406 -32.832031 40.816406 -35.0625 C 41.796875 -38.542969 43.046875 -42.511719 44.5625 -46.972656 L 60.355469 -93.007812 L 80.027344 -93.144531 L 47.640625 0.667969 Z M 30.644531 0.667969 "/></g></g></g><g fill="#ffffff" fill-opacity="1"><g transform="translate(256.342179, 234.67898)"><g><path d="M 9.101562 0 L 9.101562 -93.007812 L 62.09375 -93.007812 L 59.6875 -77.753906 L 27.835938 -77.753906 L 27.835938 -56.207031 L 54.46875 -56.207031 L 54.46875 -40.949219 L 28.105469 -40.949219 L 28.105469 -16.058594 L 63.300781 -16.058594 L 63.300781 0 Z M 9.101562 0 "/></g></g></g><g clip-path="url(#e7a9079841)"><path fill="#ffffff" d="M 78.507812 140.058594 C 65.742188 140.058594 52.976562 144.929688 43.242188 154.667969 C 33.144531 164.761719 28.324219 178.101562 28.695312 191.320312 C 31.851562 190.351562 34.613281 190.941406 37.367188 192.003906 L 41.542969 188.457031 C 41.902344 179.480469 45.476562 170.613281 52.335938 163.757812 C 59.5625 156.527344 69.039062 152.90625 78.507812 152.90625 C 87.984375 152.90625 97.457031 156.515625 104.6875 163.746094 C 109.136719 168.191406 112.199219 173.5 113.917969 179.125 L 125.109375 172.269531 C 122.679688 165.824219 118.90625 159.792969 113.773438 154.664062 C 104.027344 144.929688 91.273438 140.058594 78.507812 140.058594 Z M 78.507812 140.058594 " fill-opacity="1" fill-rule="nonzero"/></g><path fill="#ffffff" d="M 128.359375 189.636719 L 114.550781 198.089844 L 114.40625 198.851562 C 112.84375 205.175781 109.628906 211.171875 104.691406 216.105469 C 90.226562 230.566406 66.777344 230.566406 52.324219 216.105469 C 51.363281 215.144531 50.472656 214.144531 49.632812 213.105469 C 48.308594 217.453125 45.320312 221.09375 41.429688 223.285156 C 42.007812 223.925781 42.609375 224.566406 43.242188 225.183594 C 60.21875 242.140625 86.855469 244.609375 106.65625 231.0625 L 135.386719 264.046875 C 139.191406 268.796875 146.507812 267.957031 151.523438 262.941406 C 156.542969 257.914062 157.378906 250.613281 152.628906 246.804688 L 119.648438 218.074219 C 125.554688 209.445312 128.410156 199.503906 128.359375 189.636719 Z M 128.359375 189.636719 " fill-opacity="1" fill-rule="nonzero"/><g clip-path="url(#a76cf39f8a)"><path fill="#ffffff" d="M 33.019531 202.246094 C 36.308594 202.246094 38.886719 204.820312 38.886719 208.121094 C 38.886719 211.421875 36.308594 214.007812 33.019531 214.007812 C 29.707031 214.007812 27.121094 211.421875 27.121094 208.121094 C 27.121094 204.824219 29.707031 202.246094 33.019531 202.246094 Z M 99.734375 185.894531 C 103.035156 185.894531 105.613281 188.457031 105.613281 191.746094 C 105.613281 195.050781 103.023438 197.65625 99.734375 197.65625 C 96.445312 197.65625 93.847656 195.050781 93.847656 191.746094 C 93.851562 188.457031 96.445312 185.894531 99.734375 185.894531 Z M 61.808594 178.195312 C 65.101562 178.195312 67.675781 180.753906 67.675781 184.0625 C 67.675781 187.351562 65.101562 189.949219 61.808594 189.949219 C 58.519531 189.949219 55.914062 187.351562 55.914062 184.0625 C 55.910156 180.75 58.507812 178.195312 61.808594 178.195312 Z M 142.417969 166.914062 C 145.722656 166.914062 148.316406 169.476562 148.316406 172.777344 C 148.316406 176.066406 145.710938 178.671875 142.417969 178.671875 C 139.121094 178.671875 136.554688 176.078125 136.554688 172.777344 C 136.542969 169.464844 139.109375 166.914062 142.417969 166.914062 Z M 142.417969 160.4375 C 135.632812 160.4375 130.078125 165.992188 130.078125 172.773438 C 130.078125 173.53125 130.214844 174.253906 130.339844 174.960938 L 110.921875 186.84375 C 108.996094 182.507812 104.765625 179.394531 99.734375 179.394531 C 94.617188 179.394531 90.304688 182.632812 88.441406 187.109375 L 73.957031 182.871094 C 73.335938 176.652344 68.183594 171.699219 61.808594 171.699219 C 55.015625 171.699219 49.4375 177.273438 49.4375 184.058594 C 49.4375 185.351562 49.757812 186.5625 50.132812 187.730469 L 38.8125 197.351562 C 37.074219 196.398438 35.132812 195.769531 33.019531 195.769531 C 26.222656 195.769531 20.648438 201.324219 20.648438 208.121094 C 20.648438 214.90625 26.222656 220.457031 33.019531 220.457031 C 39.792969 220.457031 45.359375 214.90625 45.359375 208.121094 C 45.359375 205.8125 44.628906 203.691406 43.519531 201.828125 L 53.726562 193.164062 C 55.910156 195.105469 58.671875 196.421875 61.808594 196.421875 C 66.703125 196.421875 70.859375 193.472656 72.859375 189.316406 L 87.652344 193.609375 C 88.582031 199.503906 93.601562 204.105469 99.734375 204.105469 C 105.785156 204.105469 110.730469 199.667969 111.785156 193.90625 L 133.191406 180.8125 C 135.464844 183.417969 138.734375 185.125 142.4375 185.125 C 149.226562 185.125 154.777344 179.570312 154.777344 172.773438 C 154.78125 165.992188 149.207031 160.4375 142.417969 160.4375 Z M 142.417969 160.4375 " fill-opacity="1" fill-rule="nonzero"/></g><g clip-path="url(#c412806ec6)"><g clip-path="url(#c2baff3f84)"><g clip-path="url(#3b74f97fa7)"><path fill="#002147" d="M 55.894531 246.179688 L 56.949219 241.015625 C 91.902344 248.164062 121.3125 228.738281 128.457031 193.78125 L 133.621094 194.835938 C 125.976562 232.230469 93.285156 253.824219 55.894531 246.179688 Z M 55.894531 246.179688 " fill-opacity="1" fill-rule="nonzero"/></g></g></g><g clip-path="url(#c80b22e75e)"><g clip-path="url(#99f5714eec)"><g clip-path="url(#a6506a076d)"><path fill="#002147" d="M 58.816406 248.371094 L 59.871094 243.207031 C 94.824219 250.351562 124.234375 230.929688 131.378906 195.972656 L 136.542969 197.027344 C 128.898438 234.421875 96.207031 256.015625 58.816406 248.371094 Z M 58.816406 248.371094 " fill-opacity="1" fill-rule="nonzero"/></g></g></g><g clip-path="url(#7ddba551d5)"><g clip-path="url(#9c8b793fd5)"><g clip-path="url(#b5ffd03a57)"><path fill="#002147" d="M 62.285156 251.476562 L 63.339844 246.3125 C 98.292969 253.457031 127.703125 234.035156 134.847656 199.078125 L 140.011719 200.132812 C 132.367188 237.527344 99.679688 259.117188 62.285156 251.476562 Z M 62.285156 251.476562 " fill-opacity="1" fill-rule="nonzero"/></g></g></g><g clip-path="url(#89bbb10173)"><g clip-path="url(#9a782feaa1)"><g clip-path="url(#0a2379ddd9)"><path fill="#002147" d="M 65.207031 255.066406 L 66.261719 249.902344 C 101.214844 257.046875 130.625 237.625 137.769531 202.667969 L 142.933594 203.722656 C 135.289062 241.117188 102.597656 262.710938 65.207031 255.066406 Z M 65.207031 255.066406 " fill-opacity="1" fill-rule="nonzero"/></g></g></g><g clip-path="url(#e225141c0f)"><g clip-path="url(#417827a5d1)"><g clip-path="url(#aeb73cab59)"><path fill="#002147" d="M 67.761719 257.683594 L 68.816406 252.519531 C 103.773438 259.664062 133.179688 240.242188 140.324219 205.285156 L 145.488281 206.339844 C 137.84375 243.734375 105.15625 265.328125 67.761719 257.683594 Z M 67.761719 257.683594 " fill-opacity="1" fill-rule="nonzero"/></g></g></g><g clip-path="url(#b436353465)"><g clip-path="url(#baf578051c)"><path fill="#002147" d="M 112.859375 225.695312 L 167.183594 225.695312 L 167.183594 280.015625 L 112.859375 280.015625 Z M 112.859375 225.695312 " fill-opacity="1" fill-rule="nonzero"/></g></g><g clip-path="url(#49dbb264d5)"><g clip-path="url(#985fc17185)"><g clip-path="url(#3d6a187ba7)"><path fill="#002147" d="M 10.304688 192.046875 L 155.050781 154.992188 L 164.644531 192.457031 L 19.898438 229.511719 Z M 10.304688 192.046875 " fill-opacity="1" fill-rule="nonzero"/></g></g></g><g clip-path="url(#f6cc8a1e8d)"><g clip-path="url(#f048356fb4)"><g clip-path="url(#7f935e6760)"><path fill="#002147" d="M 45 169.980469 L 85.300781 159.664062 L 93.875 193.15625 L 53.574219 203.472656 Z M 45 169.980469 " fill-opacity="1" fill-rule="nonzero"/></g></g></g><g clip-path="url(#b5194fbe26)"><g clip-path="url(#75600636e9)"><g clip-path="url(#b85ab8c8b1)"><path fill="#ffffff" d="M 116.679688 184.25 L 115.625 175.625 L 122.625 174.710938 L 123.816406 183.316406 Z M 127.128906 207.203125 L 122.734375 171.328125 L 122.164062 171.402344 L 122.523438 173.996094 L 115.539062 174.90625 L 115.222656 172.308594 L 114.679688 172.382812 L 119.203125 204.910156 L 116.765625 184.964844 L 123.914062 184.03125 L 127.128906 207.203125 " fill-opacity="1" fill-rule="nonzero"/></g></g></g><g clip-path="url(#2b1c29fb73)"><g clip-path="url(#a83b20c28d)"><g clip-path="url(#5a974d9a44)"><path fill="#ffffff" d="M 26.160156 217.09375 C 26.160156 217.09375 26.59375 216.890625 27.40625 216.511719 C 28.21875 216.132812 29.414062 215.582031 30.945312 214.910156 C 32.476562 214.234375 34.34375 213.429688 36.492188 212.523438 C 37.566406 212.074219 38.714844 211.597656 39.921875 211.097656 C 41.132812 210.605469 42.40625 210.089844 43.742188 209.566406 C 46.410156 208.511719 49.320312 207.410156 52.402344 206.261719 C 55.488281 205.128906 58.746094 203.941406 62.148438 202.800781 C 63 202.511719 63.855469 202.222656 64.71875 201.933594 C 65.585938 201.648438 66.457031 201.363281 67.332031 201.074219 C 69.085938 200.488281 70.871094 199.945312 72.671875 199.378906 C 74.46875 198.824219 76.289062 198.285156 78.117188 197.742188 C 79.035156 197.476562 79.953125 197.214844 80.871094 196.953125 C 81.789062 196.6875 82.707031 196.421875 83.632812 196.175781 C 85.484375 195.679688 87.324219 195.164062 89.175781 194.703125 C 90.101562 194.46875 91.023438 194.234375 91.941406 194 C 92.859375 193.765625 93.78125 193.554688 94.699219 193.335938 C 95.613281 193.117188 96.527344 192.898438 97.4375 192.679688 C 98.347656 192.480469 99.253906 192.28125 100.15625 192.082031 C 101.058594 191.886719 101.953125 191.683594 102.847656 191.5 C 103.742188 191.320312 104.628906 191.140625 105.507812 190.960938 C 106.386719 190.789062 107.257812 190.601562 108.125 190.445312 C 108.992188 190.289062 109.851562 190.132812 110.699219 189.976562 C 111.550781 189.828125 112.390625 189.664062 113.222656 189.53125 C 114.054688 189.398438 114.878906 189.265625 115.691406 189.136719 C 116.503906 189.007812 117.304688 188.878906 118.09375 188.753906 C 118.886719 188.644531 119.664062 188.539062 120.433594 188.433594 C 121.199219 188.328125 121.953125 188.226562 122.691406 188.125 C 122.878906 188.101562 123.0625 188.078125 123.246094 188.050781 C 123.429688 188.03125 123.613281 188.011719 123.792969 187.992188 C 124.15625 187.949219 124.519531 187.910156 124.875 187.871094 C 125.585938 187.789062 126.285156 187.710938 126.96875 187.632812 C 127.652344 187.5625 128.316406 187.46875 128.96875 187.425781 C 130.273438 187.316406 131.511719 187.210938 132.671875 187.113281 C 132.960938 187.089844 133.246094 187.066406 133.527344 187.042969 C 133.808594 187.019531 134.085938 187.007812 134.359375 186.992188 C 134.902344 186.960938 135.425781 186.929688 135.929688 186.902344 C 136.9375 186.84375 137.863281 186.792969 138.699219 186.742188 C 140.371094 186.6875 141.6875 186.667969 142.582031 186.640625 C 143.476562 186.621094 143.957031 186.609375 143.957031 186.609375 C 143.957031 186.609375 142.046875 186.71875 138.707031 186.910156 C 137.875 186.980469 136.953125 187.054688 135.945312 187.136719 C 135.445312 187.179688 134.921875 187.222656 134.382812 187.265625 C 134.109375 187.292969 133.832031 187.308594 133.554688 187.339844 C 133.273438 187.371094 132.988281 187.402344 132.699219 187.433594 C 131.542969 187.558594 130.3125 187.695312 129.011719 187.835938 C 128.363281 187.902344 127.703125 188 127.019531 188.085938 C 126.339844 188.175781 125.644531 188.265625 124.9375 188.359375 C 124.582031 188.40625 124.222656 188.453125 123.859375 188.5 C 123.679688 188.523438 123.496094 188.546875 123.3125 188.570312 C 123.132812 188.601562 122.949219 188.628906 122.765625 188.65625 C 122.027344 188.769531 121.277344 188.886719 120.515625 189.003906 C 119.75 189.121094 118.976562 189.238281 118.1875 189.359375 C 117.402344 189.492188 116.605469 189.628906 115.796875 189.769531 C 114.988281 189.910156 114.167969 190.050781 113.339844 190.195312 C 112.507812 190.339844 111.675781 190.515625 110.828125 190.675781 C 109.984375 190.835938 109.128906 191 108.265625 191.167969 C 107.402344 191.328125 106.535156 191.523438 105.65625 191.703125 C 104.78125 191.890625 103.898438 192.074219 103.007812 192.261719 C 102.121094 192.449219 101.230469 192.664062 100.332031 192.863281 C 99.433594 193.070312 98.53125 193.273438 97.621094 193.480469 C 96.714844 193.699219 95.804688 193.921875 94.890625 194.140625 C 93.980469 194.367188 93.0625 194.578125 92.144531 194.8125 C 91.226562 195.050781 90.308594 195.285156 89.386719 195.523438 C 87.542969 195.984375 85.703125 196.507812 83.859375 197.003906 C 82.9375 197.246094 82.019531 197.511719 81.101562 197.773438 C 80.183594 198.03125 79.269531 198.292969 78.351562 198.550781 C 76.527344 199.09375 74.710938 199.625 72.914062 200.171875 C 69.320312 201.285156 65.785156 202.378906 62.386719 203.515625 C 58.988281 204.640625 55.710938 205.761719 52.613281 206.847656 C 49.519531 207.949219 46.597656 209.003906 43.917969 210.019531 C 41.234375 211.027344 38.78125 211.972656 36.609375 212.816406 C 34.441406 213.667969 32.558594 214.425781 31.011719 215.0625 C 29.464844 215.699219 28.25 216.199219 27.425781 216.550781 C 26.601562 216.90625 26.160156 217.09375 26.160156 217.09375 " fill-opacity="1" fill-rule="nonzero"/></g></g></g><g clip-path="url(#59c8a51ea7)"><g clip-path="url(#2de15284a2)"><g clip-path="url(#f358941526)"><path fill="#ffffff" d="M 26.5625 220.164062 C 26.5625 220.164062 26.996094 219.960938 27.804688 219.574219 C 28.617188 219.199219 29.808594 218.640625 31.339844 217.964844 C 32.871094 217.285156 34.734375 216.472656 36.878906 215.5625 C 37.957031 215.113281 39.101562 214.632812 40.304688 214.128906 C 41.515625 213.632812 42.789062 213.113281 44.125 212.589844 C 46.789062 211.519531 49.695312 210.410156 52.777344 209.261719 C 55.863281 208.128906 59.125 206.945312 62.527344 205.796875 C 63.375 205.511719 64.230469 205.21875 65.09375 204.929688 C 65.960938 204.644531 66.832031 204.355469 67.710938 204.070312 C 69.460938 203.484375 71.25 202.9375 73.046875 202.371094 C 74.847656 201.816406 76.667969 201.277344 78.496094 200.730469 C 79.410156 200.46875 80.328125 200.203125 81.25 199.941406 C 82.167969 199.675781 83.085938 199.410156 84.011719 199.160156 C 85.859375 198.667969 87.703125 198.152344 89.554688 197.691406 C 90.480469 197.457031 91.402344 197.222656 92.320312 196.988281 C 93.242188 196.753906 94.164062 196.546875 95.082031 196.324219 C 95.996094 196.105469 96.910156 195.886719 97.816406 195.671875 C 98.730469 195.472656 99.636719 195.273438 100.539062 195.074219 C 101.445312 194.878906 102.339844 194.675781 103.230469 194.492188 C 104.125 194.3125 105.011719 194.136719 105.894531 193.957031 C 106.773438 193.785156 107.644531 193.597656 108.511719 193.441406 C 109.378906 193.285156 110.238281 193.128906 111.089844 192.976562 C 111.941406 192.828125 112.777344 192.667969 113.613281 192.535156 C 114.445312 192.402344 115.269531 192.273438 116.082031 192.144531 C 116.894531 192.015625 117.695312 191.890625 118.484375 191.765625 C 119.277344 191.65625 120.058594 191.550781 120.824219 191.445312 C 121.59375 191.34375 122.347656 191.242188 123.085938 191.144531 C 123.269531 191.121094 123.457031 191.09375 123.640625 191.070312 C 123.824219 191.050781 124.003906 191.03125 124.1875 191.011719 C 124.550781 190.96875 124.914062 190.929688 125.269531 190.890625 C 125.984375 190.8125 126.679688 190.734375 127.363281 190.660156 C 128.046875 190.585938 128.710938 190.496094 129.367188 190.453125 C 130.667969 190.347656 131.90625 190.246094 133.070312 190.152344 C 133.359375 190.128906 133.644531 190.105469 133.925781 190.082031 C 134.207031 190.058594 134.484375 190.050781 134.757812 190.035156 C 135.300781 190.003906 135.824219 189.976562 136.328125 189.949219 C 137.335938 189.894531 138.261719 189.84375 139.097656 189.796875 C 140.769531 189.742188 142.085938 189.730469 142.984375 189.707031 C 143.878906 189.6875 144.355469 189.679688 144.355469 189.679688 C 144.355469 189.679688 142.449219 189.792969 139.109375 189.996094 C 138.277344 190.066406 137.355469 190.144531 136.351562 190.230469 C 135.847656 190.273438 135.324219 190.320312 134.785156 190.367188 C 134.511719 190.390625 134.238281 190.410156 133.957031 190.4375 C 133.675781 190.46875 133.390625 190.503906 133.101562 190.535156 C 131.945312 190.664062 130.714844 190.800781 129.417969 190.949219 C 128.769531 191.011719 128.105469 191.113281 127.425781 191.203125 C 126.75 191.292969 126.054688 191.382812 125.34375 191.476562 C 124.988281 191.523438 124.628906 191.574219 124.269531 191.621094 C 124.085938 191.644531 123.90625 191.667969 123.722656 191.695312 C 123.539062 191.722656 123.355469 191.75 123.171875 191.777344 C 122.4375 191.894531 121.6875 192.011719 120.925781 192.128906 C 120.160156 192.246094 119.386719 192.367188 118.597656 192.488281 C 117.8125 192.625 117.015625 192.761719 116.207031 192.902344 C 115.398438 193.042969 114.582031 193.1875 113.75 193.332031 C 112.921875 193.476562 112.089844 193.652344 111.242188 193.8125 C 110.398438 193.976562 109.542969 194.140625 108.679688 194.308594 C 107.816406 194.472656 106.949219 194.667969 106.074219 194.847656 C 105.199219 195.035156 104.316406 195.21875 103.425781 195.40625 C 102.539062 195.597656 101.648438 195.808594 100.75 196.011719 C 99.851562 196.21875 98.949219 196.425781 98.039062 196.632812 C 97.136719 196.851562 96.226562 197.070312 95.3125 197.292969 C 94.402344 197.515625 93.480469 197.726562 92.566406 197.964844 C 91.648438 198.199219 90.730469 198.4375 89.808594 198.675781 C 87.964844 199.136719 86.128906 199.660156 84.285156 200.15625 C 83.363281 200.398438 82.445312 200.664062 81.527344 200.925781 C 80.609375 201.183594 79.691406 201.445312 78.777344 201.703125 C 76.953125 202.242188 75.136719 202.773438 73.335938 203.324219 C 69.746094 204.433594 66.210938 205.523438 62.8125 206.660156 C 59.410156 207.777344 56.136719 208.902344 53.039062 209.984375 C 51.492188 210.539062 49.984375 211.066406 48.535156 211.597656 C 47.808594 211.863281 47.09375 212.121094 46.394531 212.375 C 45.695312 212.636719 45.007812 212.890625 44.335938 213.136719 C 41.652344 214.140625 39.195312 215.078125 37.023438 215.917969 C 34.851562 216.761719 32.964844 217.515625 31.417969 218.148438 C 29.871094 218.78125 28.652344 219.277344 27.828125 219.625 C 27.003906 219.976562 26.5625 220.164062 26.5625 220.164062 " fill-opacity="1" fill-rule="nonzero"/></g></g></g><g clip-path="url(#01b1f48340)"><g clip-path="url(#a5b7fb74ba)"><g clip-path="url(#898736fdc0)"><path fill="#ffffff" d="M 40.277344 214.132812 L 43.007812 208.660156 L 45.753906 203.199219 L 48.5 197.734375 L 51.261719 192.28125 L 56.796875 181.375 L 59.5625 175.921875 L 62.34375 170.476562 L 62.660156 169.859375 L 63.007812 170.46875 C 63.847656 171.9375 64.773438 173.378906 65.722656 174.789062 C 66.679688 176.199219 67.679688 177.582031 68.722656 178.929688 C 70.804688 181.625 73.050781 184.199219 75.507812 186.542969 C 76.734375 187.71875 78.015625 188.832031 79.359375 189.867188 C 80.699219 190.902344 82.101562 191.855469 83.566406 192.695312 C 85.03125 193.53125 86.5625 194.246094 88.152344 194.792969 C 89.738281 195.335938 91.382812 195.707031 93.050781 195.851562 C 94.714844 195.996094 96.398438 195.910156 98.039062 195.59375 C 99.679688 195.28125 101.273438 194.734375 102.789062 194.011719 L 103.351562 193.730469 L 103.636719 193.589844 C 103.730469 193.542969 103.816406 193.488281 103.910156 193.4375 C 104.273438 193.222656 104.640625 193.019531 105 192.800781 L 106.054688 192.105469 C 106.230469 191.992188 106.398438 191.863281 106.566406 191.738281 L 107.578125 190.976562 L 108.066406 190.566406 C 108.386719 190.292969 108.71875 190.03125 109.027344 189.742188 L 109.957031 188.875 L 110.1875 188.660156 C 110.261719 188.585938 110.335938 188.507812 110.410156 188.433594 L 110.851562 187.976562 C 112.050781 186.777344 113.132812 185.464844 114.199219 184.140625 L 115.347656 182.605469 C 115.476562 182.4375 115.601562 182.265625 115.722656 182.089844 L 116.449219 181.039062 C 116.691406 180.6875 116.933594 180.339844 117.160156 179.976562 L 117.851562 178.902344 L 118.195312 178.363281 C 118.308594 178.183594 118.414062 177.996094 118.523438 177.816406 L 119.179688 176.714844 C 119.398438 176.351562 119.617188 175.984375 119.820312 175.609375 C 120.230469 174.859375 120.660156 174.121094 121.054688 173.363281 L 122.234375 171.089844 L 122.398438 170.777344 L 122.621094 171.042969 C 123.832031 172.480469 125.039062 173.925781 126.242188 175.371094 L 129.855469 179.707031 L 133.46875 184.039062 L 137.066406 188.386719 L 133.355469 184.136719 L 125.957031 175.613281 C 124.722656 174.195312 123.492188 172.773438 122.269531 171.34375 L 122.652344 171.296875 L 121.496094 173.597656 C 121.105469 174.363281 120.683594 175.109375 120.28125 175.867188 C 120.082031 176.246094 119.867188 176.617188 119.648438 176.988281 L 119.003906 178.105469 C 118.894531 178.289062 118.789062 178.476562 118.679688 178.660156 L 118.339844 179.207031 L 117.65625 180.300781 C 117.433594 180.667969 117.191406 181.023438 116.949219 181.378906 L 116.230469 182.449219 C 116.113281 182.628906 115.988281 182.804688 115.859375 182.976562 L 115.480469 183.5 L 114.71875 184.542969 C 113.65625 185.894531 112.574219 187.238281 111.367188 188.476562 C 110.789062 189.117188 110.148438 189.695312 109.523438 190.292969 C 109.207031 190.589844 108.867188 190.859375 108.542969 191.140625 L 108.046875 191.5625 L 107.015625 192.351562 C 106.84375 192.480469 106.671875 192.613281 106.488281 192.730469 L 105.410156 193.457031 C 105.039062 193.679688 104.660156 193.898438 104.285156 194.117188 C 104.191406 194.171875 104.101562 194.230469 104.003906 194.28125 L 103.710938 194.425781 L 103.128906 194.71875 C 101.566406 195.480469 99.90625 196.0625 98.195312 196.398438 C 96.480469 196.738281 94.71875 196.828125 92.980469 196.679688 C 91.238281 196.535156 89.527344 196.152344 87.878906 195.589844 C 86.230469 195.03125 84.652344 194.292969 83.144531 193.4375 C 81.636719 192.582031 80.203125 191.601562 78.839844 190.542969 C 77.472656 189.488281 76.171875 188.347656 74.925781 187.15625 C 72.4375 184.765625 70.167969 182.160156 68.074219 179.429688 C 67.027344 178.0625 66.027344 176.660156 65.070312 175.230469 C 64.117188 173.796875 63.199219 172.347656 62.347656 170.835938 L 63.015625 170.824219 L 60.195312 176.25 L 57.359375 181.667969 L 51.695312 192.503906 L 48.855469 197.917969 L 43.148438 208.734375 L 40.277344 214.132812 " fill-opacity="1" fill-rule="nonzero"/></g></g></g><g clip-path="url(#744940dd90)"><g clip-path="url(#aef7419dc0)"><g clip-path="url(#9f182fdec8)"><path fill="#ffffff" d="M 29.3125 215.636719 L 31.957031 210.167969 L 34.613281 204.707031 L 37.273438 199.246094 L 39.949219 193.792969 L 47.988281 177.445312 L 50.6875 172.003906 L 50.976562 171.417969 L 51.347656 171.964844 C 52.289062 173.359375 53.328125 174.71875 54.394531 176.035156 C 55.460938 177.359375 56.585938 178.636719 57.734375 179.882812 C 60.050781 182.371094 62.53125 184.703125 65.207031 186.785156 C 66.542969 187.824219 67.929688 188.800781 69.367188 189.6875 C 70.800781 190.582031 72.289062 191.386719 73.824219 192.082031 C 75.359375 192.773438 76.945312 193.351562 78.570312 193.78125 C 80.195312 194.210938 81.859375 194.488281 83.53125 194.585938 C 85.203125 194.683594 86.886719 194.605469 88.542969 194.34375 C 90.195312 194.082031 91.824219 193.640625 93.390625 193.039062 C 94.957031 192.425781 96.460938 191.65625 97.898438 190.78125 L 98.964844 190.101562 L 100 189.371094 C 100.171875 189.246094 100.347656 189.132812 100.515625 189 L 101.011719 188.609375 C 101.34375 188.34375 101.683594 188.09375 102.003906 187.816406 C 102.640625 187.261719 103.292969 186.722656 103.898438 186.125 C 104.203125 185.832031 104.515625 185.546875 104.816406 185.246094 L 106.140625 183.875 L 106.566406 183.398438 L 107.410156 182.449219 C 107.554688 182.289062 107.691406 182.128906 107.824219 181.960938 L 108.230469 181.46875 L 109.039062 180.484375 C 109.554688 179.808594 110.074219 179.136719 110.582031 178.453125 C 111.070312 177.757812 111.574219 177.070312 112.054688 176.367188 C 112.523438 175.65625 112.996094 174.949219 113.460938 174.234375 L 114.808594 172.0625 L 114.941406 171.847656 L 115.125 172.015625 L 121.761719 178.226562 L 125.082031 181.332031 L 128.386719 184.449219 L 124.996094 181.425781 L 114.847656 172.320312 L 115.164062 172.273438 L 113.839844 174.476562 C 113.386719 175.203125 112.917969 175.917969 112.453125 176.640625 C 111.980469 177.351562 111.484375 178.050781 111 178.757812 C 110.496094 179.453125 109.980469 180.136719 109.472656 180.824219 L 108.667969 181.828125 L 108.265625 182.332031 C 108.132812 182.5 107.996094 182.664062 107.851562 182.824219 L 107.011719 183.796875 L 106.585938 184.285156 L 105.261719 185.691406 C 104.964844 186 104.648438 186.292969 104.34375 186.59375 C 103.738281 187.207031 103.082031 187.765625 102.441406 188.339844 C 102.117188 188.625 101.773438 188.882812 101.445312 189.15625 L 100.941406 189.5625 C 100.773438 189.699219 100.59375 189.816406 100.421875 189.945312 C 100.070312 190.199219 99.726562 190.457031 99.371094 190.703125 L 98.285156 191.40625 C 96.816406 192.3125 95.28125 193.113281 93.671875 193.757812 C 92.058594 194.386719 90.378906 194.855469 88.671875 195.136719 C 86.960938 195.417969 85.214844 195.511719 83.484375 195.414062 C 81.753906 195.316406 80.035156 195.03125 78.359375 194.59375 C 76.683594 194.152344 75.054688 193.5625 73.476562 192.855469 C 70.324219 191.441406 67.398438 189.570312 64.6875 187.453125 C 61.972656 185.332031 59.46875 182.964844 57.132812 180.445312 C 55.96875 179.183594 54.847656 177.878906 53.773438 176.535156 C 52.703125 175.191406 51.671875 173.828125 50.707031 172.382812 L 51.367188 172.34375 L 48.636719 177.769531 L 45.886719 183.183594 L 40.390625 194.015625 L 37.640625 199.429688 L 34.871094 204.835938 L 32.097656 210.238281 L 29.3125 215.636719 " fill-opacity="1" fill-rule="nonzero"/></g></g></g><g clip-path="url(#719080f0c1)"><g clip-path="url(#4b2c5c2a3a)"><g clip-path="url(#b5d80b6cc8)"><path fill="#ffffff" d="M 63.105469 170.585938 L 63.246094 170.828125 " fill-opacity="1" fill-rule="nonzero"/></g></g></g><g clip-path="url(#bcde08366e)"><g clip-path="url(#74a686b13e)"><g clip-path="url(#196eedfe30)"><path fill="#ffffff" d="M 54.167969 194.140625 L 52.207031 178.226562 L 63.152344 176.796875 L 65.335938 192.683594 Z M 63.109375 170.59375 L 62.316406 170.699219 L 62.972656 175.480469 L 52.042969 176.910156 L 51.453125 172.117188 L 50.601562 172.230469 L 58.871094 232.25 L 54.332031 195.460938 L 65.515625 194 L 71.394531 236.757812 L 63.234375 170.8125 L 63.109375 170.59375 " fill-opacity="1" fill-rule="nonzero"/></g></g></g></svg>